<svg width="58" height="58" viewBox="0 0 58 58" fill="none" xmlns="http://www.w3.org/2000/svg">
<g opacity="0.68">
<path d="M4.62281 31.1352C3.22729 29.7397 3.22729 27.4771 4.62281 26.0816L26.0817 4.62269C27.4772 3.22717 29.7398 3.22717 31.1353 4.62269L52.5942 26.0816C53.9898 27.4771 53.9898 29.7397 52.5942 31.1352L31.1353 52.5941C29.7398 53.9896 27.4772 53.9896 26.0817 52.5941L4.62281 31.1352Z" fill="#545E66"/>
<path d="M21.7234 9.05035L19.5503 11.2234L25.1627 16.8359C24.9357 17.323 24.809 17.8662 24.809 18.439C24.809 20.0654 25.8308 21.4531 27.2675 21.9952V35.7246C25.8308 36.2666 24.809 37.6543 24.809 39.2807C24.809 41.3791 26.5101 43.0802 28.6085 43.0802C30.7069 43.0802 32.4081 41.3791 32.4081 39.2807C32.4081 37.8062 31.5681 36.5279 30.3407 35.898V22.0138L35.7057 27.3788C35.4897 27.856 35.3695 28.3858 35.3695 28.9437C35.3695 31.0421 37.0706 32.7432 39.169 32.7432C41.2675 32.7432 42.9686 31.0421 42.9686 28.9437C42.9686 26.8452 41.2675 25.1441 39.169 25.1441C38.7612 25.1441 38.3685 25.2084 38.0003 25.3273L32.2383 19.5653C32.3487 19.2095 32.4081 18.8312 32.4081 18.439C32.4081 16.3406 30.7069 14.6395 28.6085 14.6395C28.2164 14.6395 27.8381 14.6989 27.4822 14.8092L21.7234 9.05035Z" fill="white"/>
</g>
</svg>
