<svg width="59" height="55" viewBox="0 0 59 55" fill="none" xmlns="http://www.w3.org/2000/svg">
<g opacity="0.68" clip-path="url(#clip0_203_744)">
<circle cx="29.4349" cy="29.2494" r="25.0324" fill="#545E66"/>
<path fill-rule="evenodd" clip-rule="evenodd" d="M40.163 14.2039H18.7067C16.7572 14.201 15.1341 15.7495 15.1306 17.5946V37.9388C15.1306 39.8113 16.7321 41.3295 18.7067 41.3295H40.163C42.1124 41.3324 43.7356 39.7839 43.739 37.9388V17.5946C43.739 15.7221 42.1383 14.2039 40.163 14.2039ZM33.2485 19.1769C33.2485 18.6781 33.6762 18.2727 34.2029 18.2727C34.7296 18.2727 35.1565 18.6781 35.1565 19.1769V31.2576C35.1565 31.7564 34.7288 32.1618 34.2029 32.1618C33.698 32.1622 33.2505 31.7379 33.2493 31.2576L33.2485 19.1769ZM28.4804 18.7195C28.4804 18.22 28.9081 17.8153 29.4348 17.8153C29.9615 17.8153 30.3892 18.22 30.3892 18.7195V31.8303C30.3892 32.3298 29.9615 32.7345 29.4348 32.7345C28.93 32.7349 28.4825 32.3106 28.4812 31.8303L28.4804 18.7195ZM23.7131 19.1769C23.7131 18.6781 24.1408 18.2727 24.6668 18.2727C25.1935 18.2727 25.6204 18.6781 25.6204 19.1769V31.2576C25.6204 31.7564 25.1935 32.1618 24.6668 32.1618C24.1619 32.1622 23.7144 31.7379 23.7131 31.2576V19.1769ZM18.9451 20.9853C18.9451 20.4857 19.372 20.0811 19.8987 20.0811C20.4254 20.0811 20.8523 20.4857 20.8523 20.9853V29.1177C20.8523 29.6173 20.4246 30.0219 19.8987 30.0219C19.3788 30.0227 18.9459 29.6098 18.9451 29.1177V20.9853ZM39.5919 34.7772C39.4454 34.8977 35.9121 37.7075 29.4348 37.7075C22.9575 37.7075 19.4266 34.897 19.2777 34.7764C18.8837 34.4564 18.8371 33.8756 19.1748 33.5023C19.5039 33.139 20.1321 33.0924 20.5165 33.4028C20.5719 33.4473 23.7266 35.8991 29.434 35.8991C35.2127 35.8991 38.3191 33.4292 38.3492 33.4051C38.7331 33.0923 39.3635 33.1379 39.6933 33.5023C40.0332 33.8749 39.9872 34.4572 39.5919 34.7772ZM39.9246 29.1185C39.9246 29.6173 39.4969 30.0227 38.971 30.0227C38.4511 30.0235 38.0182 29.6105 38.0173 29.1185V20.9853C38.0173 20.4857 38.4442 20.0811 38.9702 20.0811C39.4969 20.0811 39.9246 20.4857 39.9246 20.9853V29.1185Z" fill="white"/>
</g>
<defs>
<clipPath id="clip0_203_744">
<rect width="57.2168" height="54.2514" fill="white" transform="translate(0.82666 0.640991)"/>
</clipPath>
</defs>
</svg>
