<svg width="59" height="55" viewBox="0 0 59 55" fill="none" xmlns="http://www.w3.org/2000/svg">
<g opacity="0.68">
<path d="M9.8103 47.9755C9.8103 49.0581 10.4761 49.8063 11.6072 49.8063H33.0079C30.1358 44.4275 26.9203 39.521 22.9178 34.9213C18.7766 37.3832 14.3994 39.512 9.8103 41.247V47.9755Z" fill="#545E66"/>
<path d="M9.8103 14.4705C14.3878 16.2001 18.7548 18.3227 22.8858 20.7756C26.9021 16.1677 30.3797 11.1198 33.2591 5.72711H12.0406C10.8086 5.72711 9.8103 6.6829 9.8103 7.86211" fill="#545E66"/>
<path d="M22.9176 34.9214C26.4737 32.8078 29.8554 30.4528 33.0223 27.8585C29.846 25.2566 26.4519 22.8948 22.8871 20.7763C20.7207 23.2623 18.3931 25.6118 15.937 27.8309C18.4055 30.0625 20.7432 32.4237 22.9176 34.9214Z" fill="#515151"/>
<path d="M33.0215 27.8592C29.8549 30.4532 26.4734 32.8079 22.9177 34.9214C26.9202 39.521 30.1357 44.4274 33.0078 49.8063L49.0788 49.8064C50.5621 49.8064 51.1102 48.8086 50.5621 47.9128C45.9127 40.3189 39.9644 33.5484 33.0215 27.8592Z" fill="#767676"/>
<path d="M33.2576 5.72939C30.3798 11.1188 26.899 16.1707 22.8856 20.7763C26.4503 22.8947 29.8459 25.2566 33.0223 27.8585C40.0696 22.0817 46.0941 15.1939 50.7732 7.46077C51.2379 6.69255 50.6425 5.72711 49.7133 5.72711L33.2576 5.72939Z" fill="#D9D9D9"/>
<path d="M9.8103 32.8643C11.9361 31.2783 13.9798 29.6005 15.9379 27.8316C13.9798 26.0635 11.9361 24.3836 9.8103 22.7996V32.8643Z" fill="#676769"/>
<path d="M9.8103 14.4705C14.3878 16.2 18.7548 18.3226 22.8858 20.7755C20.7194 23.2615 18.3933 25.6118 15.9372 27.8309C13.9793 26.0629 11.9361 24.3836 9.81043 22.7997L9.8103 14.4705Z" fill="#C3D0C8"/>
<path d="M22.9179 34.9214C20.7435 32.4238 18.4056 30.0625 15.9372 27.831C13.9792 29.5998 11.9361 31.2784 9.8103 32.8645V41.247C14.3994 39.512 18.7767 37.3833 22.9179 34.9214Z" fill="#515151"/>
</g>
</svg>
