<svg width="58" height="55" viewBox="0 0 58 55" fill="none" xmlns="http://www.w3.org/2000/svg">
<g opacity="0.68" clip-path="url(#clip0_203_745)">
<circle cx="29.392" cy="29.2494" r="25.0324" fill="#676769"/>
<path d="M43.5552 18.1339C42.1297 17.3253 40.5214 16.1908 39.0342 17.6408C37.1863 20.1289 33.7938 23.479 35.5249 26.734C36.2238 27.9832 37.3788 28.9153 38.3071 30.0014C38.8517 30.5325 39.1392 31.224 39.0342 31.9742C38.9078 32.9914 38.0542 33.7929 37.0108 33.9162C35.6198 34.0703 34.4184 32.9914 34.4184 31.666C34.2919 30.957 34.4816 29.3541 33.217 29.1692C32.395 29.0459 31.3517 30.3097 30.8142 31.9742C30.3841 33.3487 30.6245 34.5182 30.6245 35.8889C30.6245 37.3575 29.5033 38.6777 27.8424 38.509C26.7359 38.3857 25.7874 37.5227 25.6293 36.4438C25.4906 35.587 25.8798 34.7163 26.4197 34.0395C26.9572 33.2689 27.7792 32.0975 28.1902 31.0187C28.6328 29.8781 29.2826 28.9689 28.4431 28.3677C27.6035 27.7666 24.0408 32.7956 22.0884 32.4674C21.2032 32.3133 20.5076 31.6043 20.3495 30.7721C20.0966 29.5082 20.9502 28.3986 22.12 28.1828C23.493 27.9465 27.5622 26.4952 27.1152 24.9154C26.709 23.5687 23.2177 26.0635 22.0884 25.9634C21.0135 25.9326 20.1599 25.0387 20.1282 23.9906C20.1282 22.8183 21.1156 21.987 22.3097 21.987C23.7089 21.987 25.0922 22.5468 26.5145 22.2336C30.1603 21.4662 31.5255 18.3833 33.3435 15.6372C34.1971 14.3425 33.7861 12.5855 32.395 11.8149C30.6881 10.9134 28.9231 10.3779 27.0836 11.4142L15.1962 18.1339C14.0265 18.7813 13.2993 20.0143 13.2993 21.3397V34.2244C13.2993 35.5499 14.0265 36.7829 15.1962 37.4302L27.1152 44.1191C28.5063 44.9206 30.2452 44.9206 31.6678 44.1191L43.5868 37.4302C44.7566 36.7829 45.4838 35.5499 45.4838 34.2244V21.3397C45.4522 20.0143 44.725 18.7813 43.5552 18.1339Z" fill="white"/>
</g>
<defs>
<clipPath id="clip0_203_745">
<rect width="57.2168" height="54.2514" fill="white" transform="translate(0.783203 0.640991)"/>
</clipPath>
</defs>
</svg>
